<svg xmlns="http://www.w3.org/2000/svg" width="143" height="40" viewBox="0 0 143 40">
  <g id="app_store" data-name="app store" transform="translate(-0.339)">
    <g id="bg" transform="translate(0.339)" fill="none" stroke="#fff" stroke-width="1">
      <rect width="143" height="40" rx="12" stroke="none"/>
      <rect x="0.5" y="0.5" width="142" height="39" rx="11.5" fill="none"/>
    </g>
    <g id="Group_413" data-name="Group 413" transform="translate(15.536 5.5)">
      <g id="Group_409" data-name="Group 409">
        <g id="Group_408" data-name="Group 408">
          <path id="Path_1490" data-name="Path 1490" d="M30.409,19.818a5.819,5.819,0,0,1,2.806-4.886,6.057,6.057,0,0,0-4.752-2.54c-2-.208-3.938,1.182-4.956,1.182-1.039,0-2.607-1.162-4.3-1.128a6.336,6.336,0,0,0-5.325,3.211c-2.3,3.941-.585,9.732,1.621,12.918,1.1,1.56,2.393,3.3,4.081,3.241,1.651-.067,2.268-1.041,4.261-1.041,1.974,0,2.554,1.041,4.275,1,1.772-.028,2.888-1.567,3.953-3.141A12.824,12.824,0,0,0,33.884,25,5.64,5.64,0,0,1,30.409,19.818Z" transform="translate(-12.792 -6.189)" fill="#fff"/>
          <path id="Path_1491" data-name="Path 1491" d="M26.99,10.325a5.689,5.689,0,0,0,1.327-4.108A5.93,5.93,0,0,0,24.5,8.17a5.416,5.416,0,0,0-1.362,3.956A4.9,4.9,0,0,0,26.99,10.325Z" transform="translate(-12.625 -6.217)" fill="#fff"/>
        </g>
      </g>
      <g id="Group_410" data-name="Group 410" transform="translate(30.098 11.838)">
        <path id="Path_1492" data-name="Path 1492" d="M53.827,31.565H51.519l-1.264-3.927H45.861l-1.2,3.927H42.41L46.763,18.2h2.689Zm-3.953-5.574L48.731,22.5q-.181-.535-.682-2.518h-.041q-.2.853-.642,2.518l-1.123,3.491Z" transform="translate(-42.41 -18)" fill="#fff"/>
        <path id="Path_1493" data-name="Path 1493" d="M64.812,26.61A5.44,5.44,0,0,1,63.467,30.5a3.953,3.953,0,0,1-2.99,1.27A3,3,0,0,1,57.708,30.4h-.041v5.078H55.5V25.082q0-1.546-.08-3.173h1.905l.121,1.528h.041a3.881,3.881,0,0,1,6.169-.378A5.271,5.271,0,0,1,64.812,26.61Zm-2.207.078a3.935,3.935,0,0,0-.642-2.321,2.226,2.226,0,0,0-1.886-.952,2.269,2.269,0,0,0-1.454.525,2.433,2.433,0,0,0-.853,1.379,2.774,2.774,0,0,0-.1.653v1.607a2.558,2.558,0,0,0,.652,1.776,2.174,2.174,0,0,0,1.7.724,2.227,2.227,0,0,0,1.905-.932A4.069,4.069,0,0,0,62.6,26.689Z" transform="translate(-42.199 -17.984)" fill="#fff"/>
        <path id="Path_1494" data-name="Path 1494" d="M75.849,26.61A5.436,5.436,0,0,1,74.5,30.5a3.949,3.949,0,0,1-2.989,1.27A3,3,0,0,1,68.746,30.4h-.041v5.078H66.539V25.082q0-1.546-.08-3.173h1.905l.121,1.528h.041a3.883,3.883,0,0,1,6.17-.378A5.286,5.286,0,0,1,75.849,26.61Zm-2.207.078A3.935,3.935,0,0,0,73,24.368a2.223,2.223,0,0,0-1.885-.952,2.272,2.272,0,0,0-1.455.525,2.431,2.431,0,0,0-.852,1.379,2.828,2.828,0,0,0-.1.653v1.607a2.566,2.566,0,0,0,.65,1.776,2.179,2.179,0,0,0,1.7.724,2.227,2.227,0,0,0,1.905-.932A4.069,4.069,0,0,0,73.642,26.689Z" transform="translate(-42.02 -17.984)" fill="#fff"/>
        <path id="Path_1495" data-name="Path 1495" d="M88.173,27.817a3.544,3.544,0,0,1-1.2,2.777,5.364,5.364,0,0,1-3.684,1.17,6.507,6.507,0,0,1-3.5-.833l.5-1.785A5.991,5.991,0,0,0,83.417,30a2.985,2.985,0,0,0,1.907-.546,1.776,1.776,0,0,0,.681-1.461,1.851,1.851,0,0,0-.562-1.37,5.239,5.239,0,0,0-1.866-1.034q-3.552-1.309-3.551-3.833a3.376,3.376,0,0,1,1.245-2.7A4.945,4.945,0,0,1,84.583,18a6.628,6.628,0,0,1,3.069.635l-.542,1.746a5.374,5.374,0,0,0-2.588-.615,2.64,2.64,0,0,0-1.784.556,1.579,1.579,0,0,0-.542,1.211,1.627,1.627,0,0,0,.621,1.309,7.043,7.043,0,0,0,1.967,1.032A6.683,6.683,0,0,1,87.352,25.5,3.372,3.372,0,0,1,88.173,27.817Z" transform="translate(-41.804 -18.001)" fill="#fff"/>
        <path id="Path_1496" data-name="Path 1496" d="M95.183,23.526H92.795v4.68q0,1.786,1.264,1.785a3.9,3.9,0,0,0,.962-.1l.06,1.626a4.961,4.961,0,0,1-1.685.237,2.616,2.616,0,0,1-2.007-.774,3.769,3.769,0,0,1-.723-2.6V23.524H89.244V21.917h1.423V20.152l2.128-.635v2.4h2.388Z" transform="translate(-41.651 -17.994)" fill="#fff"/>
        <path id="Path_1497" data-name="Path 1497" d="M105.843,26.65a5.251,5.251,0,0,1-1.284,3.65,4.612,4.612,0,0,1-3.573,1.468,4.385,4.385,0,0,1-3.42-1.407,5.091,5.091,0,0,1-1.274-3.55,5.2,5.2,0,0,1,1.314-3.669,4.574,4.574,0,0,1,3.54-1.429A4.479,4.479,0,0,1,104.6,23.12,5.032,5.032,0,0,1,105.843,26.65Zm-2.248.069a4.3,4.3,0,0,0-.581-2.287,2.144,2.144,0,0,0-1.945-1.153,2.177,2.177,0,0,0-1.987,1.153,4.38,4.38,0,0,0-.581,2.328,4.291,4.291,0,0,0,.581,2.286,2.226,2.226,0,0,0,3.912-.02A4.313,4.313,0,0,0,103.6,26.719Z" transform="translate(-41.537 -17.984)" fill="#fff"/>
        <path id="Path_1498" data-name="Path 1498" d="M112.7,23.793a3.8,3.8,0,0,0-.683-.059,2.055,2.055,0,0,0-1.766.854,3.183,3.183,0,0,0-.542,1.9v5.058h-2.166l.02-6.6q0-1.667-.081-3.035h1.887l.079,1.844h.06a3.3,3.3,0,0,1,1.083-1.527,2.64,2.64,0,0,1,1.566-.516,3.518,3.518,0,0,1,.542.039v2.042Z" transform="translate(-41.355 -17.984)" fill="#fff"/>
        <path id="Path_1499" data-name="Path 1499" d="M122.294,26.273a4.967,4.967,0,0,1-.079.971h-6.5a2.782,2.782,0,0,0,.943,2.183,3.244,3.244,0,0,0,2.126.674,7.263,7.263,0,0,0,2.63-.456l.339,1.487a8.213,8.213,0,0,1-3.269.6,4.766,4.766,0,0,1-3.563-1.319,4.839,4.839,0,0,1-1.294-3.54,5.482,5.482,0,0,1,1.205-3.63,4.172,4.172,0,0,1,3.409-1.546,3.648,3.648,0,0,1,3.192,1.546A5.17,5.17,0,0,1,122.294,26.273Zm-2.066-.556a2.884,2.884,0,0,0-.421-1.647,1.9,1.9,0,0,0-1.727-.893,2.063,2.063,0,0,0-1.725.873,3.175,3.175,0,0,0-.641,1.666h4.513Z" transform="translate(-41.256 -17.984)" fill="#fff"/>
      </g>
      <g id="Group_412" data-name="Group 412" transform="translate(31.385 0.341)">
        <g id="Group_411" data-name="Group 411">
          <path id="Path_1500" data-name="Path 1500" d="M49.137,10.024a3.279,3.279,0,0,1-1.075,2.67,4.311,4.311,0,0,1-2.828.828,13.263,13.263,0,0,1-1.558-.078V6.983a11.626,11.626,0,0,1,1.834-.137,3.986,3.986,0,0,1,2.632.75A3.016,3.016,0,0,1,49.137,10.024Zm-1.123.029A2.385,2.385,0,0,0,47.4,8.289a2.444,2.444,0,0,0-1.8-.614,4.558,4.558,0,0,0-.858.068v4.911a5.688,5.688,0,0,0,.719.029,2.536,2.536,0,0,0,1.887-.672A2.673,2.673,0,0,0,48.014,10.053Z" transform="translate(-43.676 -6.555)" fill="#fff"/>
          <path id="Path_1501" data-name="Path 1501" d="M54.984,11.048a2.579,2.579,0,0,1-.631,1.793,2.265,2.265,0,0,1-1.755.721,2.153,2.153,0,0,1-1.681-.692,2.5,2.5,0,0,1-.625-1.744,2.555,2.555,0,0,1,.645-1.8,2.251,2.251,0,0,1,1.74-.7,2.2,2.2,0,0,1,1.7.691A2.483,2.483,0,0,1,54.984,11.048Zm-1.1.034a2.123,2.123,0,0,0-.286-1.124,1.053,1.053,0,0,0-.955-.567,1.07,1.07,0,0,0-.977.567,2.151,2.151,0,0,0-.286,1.143,2.123,2.123,0,0,0,.286,1.124,1.077,1.077,0,0,0,.966.567,1.064,1.064,0,0,0,.955-.577A2.109,2.109,0,0,0,53.879,11.082Z" transform="translate(-43.569 -6.547)" fill="#fff"/>
          <path id="Path_1502" data-name="Path 1502" d="M62.876,8.719l-1.5,4.736H60.4L59.78,11.4a15.246,15.246,0,0,1-.385-1.53h-.019a11.1,11.1,0,0,1-.385,1.53l-.66,2.056h-.987L55.935,8.719h1.094l.542,2.251q.2.8.325,1.52h.019q.119-.594.4-1.51l.68-2.26h.868l.651,2.212q.236.809.384,1.559h.029a14.747,14.747,0,0,1,.325-1.559L61.83,8.72h1.046Z" transform="translate(-43.477 -6.546)" fill="#fff"/>
          <path id="Path_1503" data-name="Path 1503" d="M68.265,13.455H67.2V10.743q0-1.254-.965-1.254a.966.966,0,0,0-.769.345,1.214,1.214,0,0,0-.3.812v2.809H64.1V10.073q0-.624-.039-1.355H65l.05.74h.029a1.529,1.529,0,0,1,.552-.572A1.816,1.816,0,0,1,66.6,8.62a1.538,1.538,0,0,1,1.115.429,2.07,2.07,0,0,1,.552,1.569Z" transform="translate(-43.345 -6.547)" fill="#fff"/>
          <path id="Path_1504" data-name="Path 1504" d="M71.1,13.465H70.041V6.556H71.1Z" transform="translate(-43.249 -6.556)" fill="#fff"/>
          <path id="Path_1505" data-name="Path 1505" d="M77.333,11.048a2.579,2.579,0,0,1-.631,1.793,2.266,2.266,0,0,1-1.755.721,2.15,2.15,0,0,1-1.681-.692,2.5,2.5,0,0,1-.625-1.744,2.555,2.555,0,0,1,.645-1.8,2.25,2.25,0,0,1,1.739-.7,2.206,2.206,0,0,1,1.7.691A2.483,2.483,0,0,1,77.333,11.048Zm-1.106.034a2.123,2.123,0,0,0-.286-1.124,1.052,1.052,0,0,0-.954-.567,1.068,1.068,0,0,0-.977.567,2.151,2.151,0,0,0-.286,1.143,2.123,2.123,0,0,0,.286,1.124,1.077,1.077,0,0,0,.966.567,1.063,1.063,0,0,0,.954-.577A2.1,2.1,0,0,0,76.227,11.082Z" transform="translate(-43.207 -6.547)" fill="#fff"/>
          <path id="Path_1506" data-name="Path 1506" d="M82.393,13.455h-.956l-.079-.545h-.029a1.647,1.647,0,0,1-1.4.653,1.453,1.453,0,0,1-1.093-.429,1.336,1.336,0,0,1-.375-.964,1.467,1.467,0,0,1,.735-1.325,3.849,3.849,0,0,1,2.066-.448v-.088q0-.936-.995-.935a2.247,2.247,0,0,0-1.249.351L78.8,9.032a3.1,3.1,0,0,1,1.643-.409q1.878,0,1.88,1.959v1.744A7.314,7.314,0,0,0,82.393,13.455Zm-1.106-1.627V11.1q-1.762-.03-1.762.954a.709.709,0,0,0,.2.556.75.75,0,0,0,.52.185,1.084,1.084,0,0,0,.651-.219.9.9,0,0,0,.369-.561A.88.88,0,0,0,81.287,11.828Z" transform="translate(-43.112 -6.547)" fill="#fff"/>
          <path id="Path_1507" data-name="Path 1507" d="M88.358,13.465h-.945l-.05-.76h-.029a1.6,1.6,0,0,1-1.539.868,1.811,1.811,0,0,1-1.439-.672,2.6,2.6,0,0,1-.571-1.744,2.725,2.725,0,0,1,.621-1.861,1.919,1.919,0,0,1,1.479-.663,1.441,1.441,0,0,1,1.35.643h.02V6.556H88.32v5.633Q88.32,12.88,88.358,13.465Zm-1.1-2v-.79a1.532,1.532,0,0,0-.029-.332,1.2,1.2,0,0,0-.385-.638,1.054,1.054,0,0,0-.712-.258,1.1,1.1,0,0,0-.937.468,1.99,1.99,0,0,0-.341,1.2,1.855,1.855,0,0,0,.327,1.14,1.1,1.1,0,0,0,.931.467,1.031,1.031,0,0,0,.841-.39A1.289,1.289,0,0,0,87.254,11.467Z" transform="translate(-43.026 -6.556)" fill="#fff"/>
          <path id="Path_1508" data-name="Path 1508" d="M97.323,11.048a2.579,2.579,0,0,1-.631,1.793,2.264,2.264,0,0,1-1.755.721,2.156,2.156,0,0,1-1.681-.692,2.5,2.5,0,0,1-.625-1.744,2.555,2.555,0,0,1,.645-1.8,2.252,2.252,0,0,1,1.741-.7,2.2,2.2,0,0,1,1.7.691A2.483,2.483,0,0,1,97.323,11.048Zm-1.1.034a2.123,2.123,0,0,0-.286-1.124,1.055,1.055,0,0,0-.956-.567A1.073,1.073,0,0,0,94,9.958a2.151,2.151,0,0,0-.286,1.143A2.123,2.123,0,0,0,94,12.225a1.077,1.077,0,0,0,.966.567,1.066,1.066,0,0,0,.956-.577A2.118,2.118,0,0,0,96.219,11.082Z" transform="translate(-42.882 -6.547)" fill="#fff"/>
          <path id="Path_1509" data-name="Path 1509" d="M102.95,13.455h-1.064V10.743q0-1.254-.966-1.254a.962.962,0,0,0-.768.345,1.209,1.209,0,0,0-.3.812v2.809H98.79V10.073q0-.624-.038-1.355h.935l.05.74h.029a1.544,1.544,0,0,1,.552-.572,1.819,1.819,0,0,1,.966-.266,1.538,1.538,0,0,1,1.114.429,2.066,2.066,0,0,1,.552,1.569Z" transform="translate(-42.783 -6.547)" fill="#fff"/>
          <path id="Path_1510" data-name="Path 1510" d="M109.983,9.513H108.81v2.3c0,.585.208.877.621.877a1.9,1.9,0,0,0,.475-.049l.027.8a2.418,2.418,0,0,1-.827.118,1.281,1.281,0,0,1-.985-.38,1.842,1.842,0,0,1-.356-1.277V9.513h-.7V8.724h.7V7.856l1.044-.311V8.723h1.173v.79Z" transform="translate(-42.649 -6.551)" fill="#fff"/>
          <path id="Path_1511" data-name="Path 1511" d="M115.55,13.465h-1.066V10.772q0-1.273-.964-1.274a1.015,1.015,0,0,0-1.016.738,1.309,1.309,0,0,0-.05.379v2.848H111.39V6.556h1.064V9.41h.02a1.614,1.614,0,0,1,1.439-.779,1.493,1.493,0,0,1,1.1.429,2.142,2.142,0,0,1,.542,1.588v2.816Z" transform="translate(-42.578 -6.556)" fill="#fff"/>
          <path id="Path_1512" data-name="Path 1512" d="M121.275,10.863a2.514,2.514,0,0,1-.04.477h-3.194a1.374,1.374,0,0,0,.462,1.072,1.6,1.6,0,0,0,1.046.332,3.565,3.565,0,0,0,1.292-.224l.167.731a4.052,4.052,0,0,1-1.608.292,2.337,2.337,0,0,1-1.749-.648,2.371,2.371,0,0,1-.635-1.739,2.69,2.69,0,0,1,.591-1.783,2.046,2.046,0,0,1,1.675-.759,1.789,1.789,0,0,1,1.566.759A2.507,2.507,0,0,1,121.275,10.863Zm-1.016-.272a1.4,1.4,0,0,0-.206-.809.933.933,0,0,0-.848-.439,1.015,1.015,0,0,0-.848.429,1.583,1.583,0,0,0-.316.819h2.217Z" transform="translate(-42.487 -6.547)" fill="#fff"/>
        </g>
      </g>
    </g>
  </g>
</svg>
