<svg xmlns="http://www.w3.org/2000/svg" width="20" height="24" viewBox="0 0 20 24">
  <g id="apple" transform="translate(0 0)">
    <g id="icons" transform="translate(0 0)">
      <path id="apple-_173_" data-name="apple-[#173]" d="M9.969,5.531a4.954,4.954,0,0,1,1.3-3.713A5.551,5.551,0,0,1,14.89,0a5.2,5.2,0,0,1-1.278,3.831,4.6,4.6,0,0,1-3.644,1.7ZM16.7,12.75A5.325,5.325,0,0,0,20,17.606a12.971,12.971,0,0,1-1.7,3.414c-1.024,1.462-2.087,2.917-3.76,2.948-1.644.03-2.173-.953-4.054-.953s-2.467.921-4.023.983c-1.616.059-2.847-1.581-3.878-3.038-2.11-2.98-3.722-8.42-1.557-12.092A6.034,6.034,0,0,1,6.111,5.861C7.7,5.831,9.194,6.9,10.164,6.9s2.79-1.29,4.7-1.1a5.781,5.781,0,0,1,4.492,2.381A5.42,5.42,0,0,0,16.7,12.75Z" transform="translate(0 0)" fill-rule="evenodd"/>
    </g>
  </g>
</svg>
