<svg xmlns="http://www.w3.org/2000/svg" width="31.086" height="31.193" viewBox="0 0 31.086 31.193">
  <g id="Change_Password" data-name="Change Password" transform="translate(6.104 3.067)">
    <path id="Path_9" data-name="Path 9" d="M19.76,2.282A11,11,0,0,0,17.526.08a.344.344,0,1,0-.406.553,10.3,10.3,0,1,1-12.837.538V4.48a.344.344,0,1,0,.687,0V.356A.344.344,0,0,0,4.627.013H.344A.344.344,0,1,0,.344.7H3.78a11,11,0,0,0,7.263,19.245A10.892,10.892,0,0,0,17.677,17.7,11.028,11.028,0,0,0,19.76,2.282Z" transform="translate(-5.323 13.744) rotate(-47)" fill="#0e0f3b" stroke="#0e0f3b" stroke-width="1"/>
    <g id="Group_4" data-name="Group 4" transform="translate(4 6.083)">
      <g id="Path_8" data-name="Path 8" transform="translate(-2 -1)" fill="#0e0f3b">
        <path d="M3.477,11.341h6.894a1.477,1.477,0,0,0,1.477-1.477V5.432a1.477,1.477,0,0,0-1.477-1.477H9.387V3.462a2.462,2.462,0,0,0-4.924,0v.492H3.477A1.477,1.477,0,0,0,2,5.432V9.864A1.477,1.477,0,0,0,3.477,11.341Zm1.97-7.879a1.477,1.477,0,0,1,2.955,0v.492H5.447ZM2.985,5.432a.492.492,0,0,1,.492-.492h6.894a.492.492,0,0,1,.492.492V9.864a.492.492,0,0,1-.492.492H3.477a.492.492,0,0,1-.492-.492Z" stroke="none"/>
        <path d="M 10.3714771270752 11.34123802185059 L 3.477317571640015 11.34123802185059 C 2.661417484283447 11.34123802185059 1.999997496604919 10.67981719970703 1.999997496604919 9.863917350769043 L 1.999997496604919 5.431957721710205 C 1.999997496604919 4.616057395935059 2.661417484283447 3.95463752746582 3.477317571640015 3.95463752746582 L 4.462197303771973 3.95463752746582 L 4.462197303771973 3.462197542190552 C 4.462197303771973 2.102367639541626 5.564557552337646 0.9999975562095642 6.924397468566895 0.9999975562095642 C 8.284237861633301 0.9999975562095642 9.386597633361816 2.102367639541626 9.386597633361816 3.462197542190552 L 9.386597633361816 3.95463752746582 L 10.3714771270752 3.95463752746582 C 11.1873779296875 3.95463752746582 11.84879779815674 4.616057395935059 11.84879779815674 5.431957721710205 L 11.84879779815674 9.863917350769043 C 11.84879779815674 10.67981719970703 11.1873779296875 11.34123802185059 10.3714771270752 11.34123802185059 Z M 3.477317571640015 4.939517498016357 C 3.205347537994385 4.939517498016357 2.984877586364746 5.159987449645996 2.984877586364746 5.431957721710205 L 2.984877586364746 9.863917350769043 C 2.984877586364746 10.13587760925293 3.205347537994385 10.35635757446289 3.477317571640015 10.35635757446289 L 10.3714771270752 10.35635757446289 C 10.64344787597656 10.35635757446289 10.86391735076904 10.13587760925293 10.86391735076904 9.863917350769043 L 10.86391735076904 5.431957721710205 C 10.86391735076904 5.159987449645996 10.64344787597656 4.939517498016357 10.3714771270752 4.939517498016357 L 3.477317571640015 4.939517498016357 Z M 6.924397468566895 1.984877586364746 C 6.108497619628906 1.984877586364746 5.44707727432251 2.646297693252563 5.44707727432251 3.462197542190552 L 5.44707727432251 3.95463752746582 L 8.401717185974121 3.95463752746582 L 8.401717185974121 3.462197542190552 C 8.401717185974121 2.646297693252563 7.740297317504883 1.984877586364746 6.924397468566895 1.984877586364746 Z" stroke="none" fill="#0e0f3b"/>
      </g>
      <g id="Ellipse_1" data-name="Ellipse 1" transform="translate(3.94 5.663)" fill="#0e0f3b" stroke="#0e0f3b" stroke-width="1">
        <circle cx="0.985" cy="0.985" r="0.985" stroke="none"/>
        <circle cx="0.985" cy="0.985" r="0.485" fill="none"/>
      </g>
    </g>
  </g>
</svg>
