<svg xmlns="http://www.w3.org/2000/svg" width="21.5" height="18.5" viewBox="0 0 21.5 18.5">
  <g id="email" transform="translate(-1.25 -2.75)">
    <path id="Path_12081" data-name="Path 12081" d="M17,21.25H7c-3.65,0-5.75-2.1-5.75-5.75v-7c0-3.65,2.1-5.75,5.75-5.75H17c3.65,0,5.75,2.1,5.75,5.75v7C22.75,19.15,20.65,21.25,17,21.25ZM7,4.25c-2.86,0-4.25,1.39-4.25,4.25v7c0,2.86,1.39,4.25,4.25,4.25H17c2.86,0,4.25-1.39,4.25-4.25v-7c0-2.86-1.39-4.25-4.25-4.25Z" fill="#0e0f3b"/>
    <path id="Path_12082" data-name="Path 12082" d="M12,12.87a3.717,3.717,0,0,1-2.34-.79L6.53,9.58a.747.747,0,1,1,.93-1.17l3.13,2.5a2.386,2.386,0,0,0,2.81,0l3.13-2.5a.747.747,0,0,1,.93,1.17l-3.13,2.5A3.67,3.67,0,0,1,12,12.87Z" fill="#0e0f3b"/>
  </g>
</svg>
