<svg xmlns="http://www.w3.org/2000/svg" width="25.599" height="32" viewBox="0 0 25.599 32">
  <g id="exam" transform="translate(-4 -2)">
    <path id="Path_12044" data-name="Path 12044" d="M20.8,5.6a3.605,3.605,0,0,1-3.6,3.6H11.6a3.6,3.6,0,0,1,0-7.2h5.6a3.605,3.605,0,0,1,3.6,3.6Z" transform="translate(2.4)" fill="#f7931e"/>
    <path id="Path_12045" data-name="Path 12045" d="M27.727,5.317A4.527,4.527,0,0,0,26.5,4.6a.807.807,0,0,0-1.024.672,5.978,5.978,0,0,1-5.872,4.8H14A6,6,0,0,1,8.128,5.285a.812.812,0,0,0-1.04-.672C5.232,5.365,4,7.061,4,10.469v15.6c0,4.8,2.864,6.4,6.4,6.4H23.2c3.536,0,6.4-1.6,6.4-6.4v-15.6C29.6,7.861,28.879,6.261,27.727,5.317ZM10.4,16.869h6.4a1.2,1.2,0,1,1,0,2.4H10.4a1.2,1.2,0,1,1,0-2.4Zm12.8,8.8H10.4a1.2,1.2,0,1,1,0-2.4H23.2a1.2,1.2,0,1,1,0,2.4Z" transform="translate(0 1.532)" fill="#f7931e"/>
  </g>
</svg>
