<svg id="google_play" data-name="google play" xmlns="http://www.w3.org/2000/svg" width="143" height="40" viewBox="0 0 143 40">
  <g id="bg" fill="none" stroke="#fff" stroke-width="1">
    <rect width="143" height="40" rx="12" stroke="none"/>
    <rect x="0.5" y="0.5" width="142" height="39" rx="11.5" fill="none"/>
  </g>
  <g id="Group_406" data-name="Group 406" transform="translate(14.931 7)">
    <path id="path35" d="M117.38,35.046h1.774V23.159H117.38Zm15.981-7.605-2.034,5.154h-.061l-2.111-5.154h-1.911l3.166,7.2-1.806,4.007h1.85l4.879-11.21ZM123.3,33.7c-.58,0-1.391-.291-1.391-1.01,0-.917,1.01-1.269,1.881-1.269a3.159,3.159,0,0,1,1.621.4A2.151,2.151,0,0,1,123.3,33.7Zm.215-6.515A3.331,3.331,0,0,0,120.348,29l1.575.657a1.681,1.681,0,0,1,1.621-.871,1.708,1.708,0,0,1,1.866,1.529v.122a3.928,3.928,0,0,0-1.85-.459c-1.7,0-3.426.933-3.426,2.676a2.747,2.747,0,0,0,2.952,2.615,2.5,2.5,0,0,0,2.263-1.163h.062v.918h1.713V30.469c0-2.11-1.577-3.288-3.609-3.288Zm-10.966,1.707h-2.524V24.814h2.524a2.038,2.038,0,1,1,0,4.075Zm-.046-5.729h-4.251V35.047h1.774v-4.5H112.5a3.7,3.7,0,1,0,0-7.384ZM89.319,33.7a2.46,2.46,0,0,1,0-4.9,2.279,2.279,0,0,1,2.16,2.466A2.26,2.26,0,0,1,89.319,33.7Zm2.037-5.591H91.3a2.8,2.8,0,0,0-2.129-.9,4.048,4.048,0,0,0,0,8.088,2.758,2.758,0,0,0,2.129-.919h.061v.582c0,1.548-.827,2.375-2.16,2.375a2.238,2.238,0,0,1-2.037-1.44l-1.547.643a3.853,3.853,0,0,0,3.584,2.39c2.084,0,3.845-1.226,3.845-4.213V27.448H91.357Zm2.911,6.939h1.776V23.158H94.268Zm4.4-3.922a2.219,2.219,0,0,1,2.114-2.359,1.568,1.568,0,0,1,1.5.858Zm5.515-1.348a3.759,3.759,0,0,0-3.462-2.573A3.843,3.843,0,0,0,96.9,31.247a3.958,3.958,0,0,0,4.013,4.044,4.024,4.024,0,0,0,3.371-1.792l-1.379-.919a2.31,2.31,0,0,1-1.992,1.118,2.056,2.056,0,0,1-1.96-1.226l5.407-2.236ZM61.1,28.444v1.716H65.2a3.58,3.58,0,0,1-.935,2.16A4.2,4.2,0,0,1,61.1,33.576a4.565,4.565,0,0,1,0-9.13,4.375,4.375,0,0,1,3.094,1.226l1.211-1.21a5.986,5.986,0,0,0-4.3-1.731,6.281,6.281,0,1,0,0,12.562,5.742,5.742,0,0,0,4.381-1.762,5.669,5.669,0,0,0,1.486-4.014,5.6,5.6,0,0,0-.092-1.072ZM71.632,33.7a2.457,2.457,0,1,1,2.282-2.451A2.34,2.34,0,0,1,71.632,33.7Zm0-6.5a4.044,4.044,0,1,0,4.059,4.044A3.986,3.986,0,0,0,71.632,27.2Zm8.855,6.5a2.457,2.457,0,1,1,2.283-2.451A2.34,2.34,0,0,1,80.487,33.7Zm0-6.5a4.044,4.044,0,1,0,4.06,4.044,3.986,3.986,0,0,0-4.06-4.044" transform="translate(-21.942 -13.031)" fill="#fff"/>
    <g id="Group_407" data-name="Group 407" transform="translate(0 0.279)">
      <path id="path37" d="M23.551,25.9,13.428,36.644v.006A2.737,2.737,0,0,0,17.458,38.3l.032-.019,11.4-6.575L23.551,25.9" transform="translate(-13.334 -14.219)" fill="#fff" stroke="#22306b" stroke-width="1"/>
      <path id="path39" d="M37.771,22.184l-.01-.007-4.92-2.852L27.3,24.258l5.562,5.561L37.755,27a2.736,2.736,0,0,0,.016-4.811" transform="translate(-17.312 -12.334)" fill="#fff" stroke="#22306b" stroke-width="1"/>
      <path id="path41" d="M13.389,12.37a2.68,2.68,0,0,0-.093.7V32.06a2.643,2.643,0,0,0,.093.7l10.472-10.47L13.389,12.37" transform="translate(-13.296 -10.338)" fill="#fff" stroke="#22306b" stroke-width="1"/>
      <path id="path43" d="M23.625,21.75l5.24-5.238-11.382-6.6a2.739,2.739,0,0,0-4.056,1.638.008.008,0,0,0,0,0l10.2,10.2" transform="translate(-13.333 -9.522)" fill="#fff" stroke="#22306b" stroke-width="1"/>
    </g>
    <path id="path33" d="M60.882,11.92H58.108v.686h2.079a1.911,1.911,0,0,1-.655,1.319,2.131,2.131,0,0,1-1.423.48,2.158,2.158,0,0,1-1.582-.648,2.421,2.421,0,0,1,0-3.278,2.156,2.156,0,0,1,1.582-.646,2.266,2.266,0,0,1,.9.175,1.746,1.746,0,0,1,.679.5l.527-.527a2.374,2.374,0,0,0-.918-.631,3.135,3.135,0,0,0-1.192-.224,2.948,2.948,0,0,0-2.973,2.989,2.948,2.948,0,0,0,2.973,2.989,2.744,2.744,0,0,0,2.1-.847,2.592,2.592,0,0,0,.712-1.911,2.818,2.818,0,0,0-.04-.431Zm1.075-2.662v5.723H65.3v-.7H62.692V12.462h2.35v-.686h-2.35V9.962H65.3v-.7Zm8.027.7v-.7H66.05v.7h1.6v5.019h.735V9.962Zm3.561-.7h-.735v5.723h.735Zm4.854.7v-.7H74.465v.7h1.6v5.019H76.8V9.962Zm7.421.04a2.961,2.961,0,0,0-4.188-.009,2.886,2.886,0,0,0-.847,2.126,2.886,2.886,0,0,0,.847,2.126,2.972,2.972,0,0,0,4.188,0,2.886,2.886,0,0,0,.847-2.126A2.877,2.877,0,0,0,85.819,10Zm-3.661.478a2.107,2.107,0,0,1,1.567-.646,2.078,2.078,0,0,1,1.559.646,2.225,2.225,0,0,1,.631,1.639,2.223,2.223,0,0,1-.631,1.639,2.079,2.079,0,0,1-1.559.648,2.108,2.108,0,0,1-1.567-.648,2.266,2.266,0,0,1-.623-1.639A2.269,2.269,0,0,1,82.158,10.48Zm6.255.936-.031-1.1h.031l2.909,4.668h.768V9.257h-.735v3.349l.031,1.1h-.031L88.574,9.257h-.9v5.723h.735Z" transform="translate(-22.06 -9.13)" fill="#fff"/>
  </g>
</svg>
