<svg xmlns="http://www.w3.org/2000/svg" width="21.465" height="21.685" viewBox="0 0 21.465 21.685">
  <g id="groups" transform="translate(-1.252 -1.25)">
    <path id="Path_12054" data-name="Path 12054" d="M18,7.16a.605.605,0,0,0-.19,0,2.585,2.585,0,1,1,.19,0Z" fill="none" stroke="#0e0f3b" stroke-linecap="round" stroke-linejoin="round" stroke-width="1.5"/>
    <path id="Path_12055" data-name="Path 12055" d="M16.97,14.44a5.635,5.635,0,0,0,3.94-.72,1.911,1.911,0,0,0,0-3.42,5.67,5.67,0,0,0-3.97-.71" fill="none" stroke="#0e0f3b" stroke-linecap="round" stroke-linejoin="round" stroke-width="1.5"/>
    <path id="Path_12056" data-name="Path 12056" d="M5.97,7.16a.605.605,0,0,1,.19,0,2.585,2.585,0,1,0-.19,0Z" fill="none" stroke="#0e0f3b" stroke-linecap="round" stroke-linejoin="round" stroke-width="1.5"/>
    <path id="Path_12057" data-name="Path 12057" d="M7,14.44a5.635,5.635,0,0,1-3.94-.72,1.911,1.911,0,0,1,0-3.42,5.67,5.67,0,0,1,3.97-.71" fill="none" stroke="#0e0f3b" stroke-linecap="round" stroke-linejoin="round" stroke-width="1.5"/>
    <path id="Path_12058" data-name="Path 12058" d="M12,14.63a.605.605,0,0,0-.19,0,2.585,2.585,0,1,1,.19,0Z" fill="none" stroke="#0e0f3b" stroke-linecap="round" stroke-linejoin="round" stroke-width="1.5"/>
    <path id="Path_12059" data-name="Path 12059" d="M9.09,17.779a1.911,1.911,0,0,0,0,3.42,5.677,5.677,0,0,0,5.82,0,1.911,1.911,0,0,0,0-3.42A5.723,5.723,0,0,0,9.09,17.779Z" fill="none" stroke="#0e0f3b" stroke-linecap="round" stroke-linejoin="round" stroke-width="1.5"/>
  </g>
</svg>
