<svg xmlns="http://www.w3.org/2000/svg" width="22.048" height="22.169" viewBox="0 0 22.048 22.169">
  <g id="home" transform="translate(-0.971 -1.014)">
    <path id="Path_12616" data-name="Path 12616" d="M20.857,8.488,13.928,2.842a3.176,3.176,0,0,0-3.859-.01L3.14,8.488a3.473,3.473,0,0,0-1.11,2.965l1.33,8.112A3.207,3.207,0,0,0,6.4,22.184H17.6a3.227,3.227,0,0,0,3.04-2.619l1.33-8.112A3.531,3.531,0,0,0,20.857,8.488ZM12,15.753a2.548,2.548,0,1,1,2.5-2.548A2.525,2.525,0,0,1,12,15.753Z" transform="translate(0 0)" fill="none" stroke="#a1a1a1" stroke-width="2"/>
  </g>
</svg>
