<svg xmlns="http://www.w3.org/2000/svg" width="19.5" height="21.5" viewBox="0 0 19.5 21.5">
  <g id="Insights" transform="translate(-2.25 -1.25)">
    <path id="Path_12068" data-name="Path 12068" d="M3,22H21" fill="none" stroke="#0e0f3b" stroke-linecap="round" stroke-linejoin="round" stroke-width="1.5"/>
    <path id="Path_12069" data-name="Path 12069" d="M5.6,8.381H4a1,1,0,0,0-1,1V18a1,1,0,0,0,1,1H5.6a1,1,0,0,0,1-1V9.381A1,1,0,0,0,5.6,8.381Z" fill="none" stroke="#0e0f3b" stroke-linecap="round" stroke-linejoin="round" stroke-width="1.5"/>
    <path id="Path_12070" data-name="Path 12070" d="M12.8,5.189H11.2a1,1,0,0,0-1,1V18a1,1,0,0,0,1,1h1.6a1,1,0,0,0,1-1V6.189A1,1,0,0,0,12.8,5.189Z" fill="none" stroke="#0e0f3b" stroke-linecap="round" stroke-linejoin="round" stroke-width="1.5"/>
    <path id="Path_12071" data-name="Path 12071" d="M20,2H18.4a1,1,0,0,0-1,1V18a1,1,0,0,0,1,1H20a1,1,0,0,0,1-1V3A1,1,0,0,0,20,2Z" fill="none" stroke="#0e0f3b" stroke-linecap="round" stroke-linejoin="round" stroke-width="1.5"/>
  </g>
</svg>
