<svg xmlns="http://www.w3.org/2000/svg" width="1075.561" height="1018.334" viewBox="0 0 1075.561 1018.334">
  <path id="path14" d="M603.447-107.451C545.873,6.143,510.141,126.316,485,249.857c-25.156,123.617-38.778,248.308-30.679,375.737-13.946,0-26.829.206-39.694-.25-1.705-.063-4.262-3.287-4.789-5.443-7.893-32.126-17.489-64.008-22.686-96.577A1112.931,1112.931,0,0,1,374.29,402.718c-3.755-76.474-1.98-152.805,18.074-227.543.344-1.274.47-2.618,1.127-6.4-11.809,12.885-22.058,23.99-32.227,35.169q-44.9,49.35-89.682,98.8c-4.972,5.5-9.3,4.511-14.638.712q-68.877-48.977-137.9-97.728c-2.414-1.712-4.909-3.3-7.754-5.211,62.727,135.077-31.532,193.823-65.479,115.406C-1.326,207-56.937,102.725-127.574,6.891c-35.708-48.441-75.153-93.371-123.584-129.84-6.946-5.23-13.064-11.567-19.534-17.422-.807-.73-1.441-1.669-3.862-4.524,7.536,3.337,12.839,5.636,18.105,8.023Q-10.837-25.6,234.7,85.822c5.2,2.362,8.364,1.719,12.776-1.518Q410.023-34.814,572.848-153.568c7.254-5.293,15.29-9.505,22.819-14.435,4.176-2.736,7.392-1.987,11.322.882" transform="translate(312.175 339.759) rotate(-17)" fill="#0e0f3b" opacity="0.05"/>
</svg>
