<svg xmlns="http://www.w3.org/2000/svg" width="21" height="20" viewBox="0 0 21 20">
  <g id="My_Courses" data-name="My Courses" transform="translate(-1.25 -1.918)">
    <path id="Path_12018" data-name="Path 12018" d="M11.75,21.918a1.693,1.693,0,0,1-.83-.208,24.237,24.237,0,0,0-7.052-2.351l-.283-.04a2.781,2.781,0,0,1-2.334-2.7V4.638a2.7,2.7,0,0,1,.86-2.014,2.615,2.615,0,0,1,2.041-.694,18.669,18.669,0,0,1,7.228,2.43l.234.139a.374.374,0,0,0,.273.01l.156-.1a19.056,19.056,0,0,1,7.238-2.47H19.4a2.565,2.565,0,0,1,1.993.7,2.7,2.7,0,0,1,.86,2.014V16.631a2.772,2.772,0,0,1-2.344,2.7l-.322.04a23.967,23.967,0,0,0-7.023,2.351A1.587,1.587,0,0,1,11.75,21.918ZM3.917,3.407a1.184,1.184,0,0,0-.82.317,1.237,1.237,0,0,0-.381.913V16.621a1.3,1.3,0,0,0,1.055,1.23l.293.04a25.666,25.666,0,0,1,7.521,2.5.432.432,0,0,0,.264.03,25.242,25.242,0,0,1,7.55-2.53l.332-.04a1.3,1.3,0,0,0,1.055-1.23V4.647a1.2,1.2,0,0,0-1.319-1.24h-.117a17.759,17.759,0,0,0-6.515,2.232l-.156.109a1.78,1.78,0,0,1-1.817.01l-.234-.139A17.8,17.8,0,0,0,4.034,3.407Z" fill="#0e0f3b"/>
    <path id="Path_12019" data-name="Path 12019" d="M11.983,21.108a.744.744,0,0,1-.733-.744V5.484a.733.733,0,1,1,1.465,0v14.88A.737.737,0,0,1,11.983,21.108Z" transform="translate(-0.233 -0.023)" fill="#0e0f3b"/>
    <path id="Path_12020" data-name="Path 12020" d="M7.68,9.228h-2.2a.744.744,0,0,1,0-1.488h2.2a.744.744,0,0,1,0,1.488Z" transform="translate(-0.081 -0.047)" fill="#0e0f3b"/>
    <path id="Path_12021" data-name="Path 12021" d="M8.413,12.228H5.483a.744.744,0,0,1,0-1.488h2.93a.744.744,0,0,1,0,1.488Z" transform="translate(-0.081 -0.071)" fill="#0e0f3b"/>
  </g>
</svg>
