<svg xmlns="http://www.w3.org/2000/svg" width="23.5" height="21.5" viewBox="0 0 23.5 21.5">
  <g id="profile" transform="translate(-1.25 -2.25)">
    <path id="Path_12012" data-name="Path 12012" d="M18.5,23H7.5C3.1,23,2,21.889,2,17.444V8.556C2,4.111,3.1,3,7.5,3h11C22.9,3,24,4.111,24,8.556v8.889C24,21.889,22.9,23,18.5,23Z" transform="translate(0 0)" fill="none" stroke="#0e0f3b" stroke-linecap="round" stroke-linejoin="round" stroke-width="1.5"/>
    <path id="Path_12013" data-name="Path 12013" d="M14,8h5.5" transform="translate(1.2 0.556)" fill="none" stroke="#0e0f3b" stroke-linecap="round" stroke-linejoin="round" stroke-width="1.5"/>
    <path id="Path_12014" data-name="Path 12014" d="M15,12h4.4" transform="translate(1.3 1)" fill="none" stroke="#0e0f3b" stroke-linecap="round" stroke-linejoin="round" stroke-width="1.5"/>
    <path id="Path_12015" data-name="Path 12015" d="M17,16h2.2" transform="translate(1.5 1.444)" fill="none" stroke="#0e0f3b" stroke-linecap="round" stroke-linejoin="round" stroke-width="1.5"/>
    <path id="Path_12016" data-name="Path 12016" d="M8.681,11.692A2.011,2.011,0,1,0,6.69,9.681,2,2,0,0,0,8.681,11.692Z" transform="translate(0.469 0.519)" fill="none" stroke="#0e0f3b" stroke-linecap="round" stroke-linejoin="round" stroke-width="1.5"/>
    <path id="Path_12017" data-name="Path 12017" d="M12.7,16.636a3.339,3.339,0,0,0-3.014-3.022,8.407,8.407,0,0,0-1.672,0A3.349,3.349,0,0,0,5,16.636" transform="translate(0.3 1.175)" fill="none" stroke="#0e0f3b" stroke-linecap="round" stroke-linejoin="round" stroke-width="1.5"/>
  </g>
</svg>
