<svg xmlns="http://www.w3.org/2000/svg" width="23.203" height="32" viewBox="0 0 23.203 32">
  <g id="score" transform="translate(-4.502 -1.25)">
    <path id="Path_12049" data-name="Path 12049" d="M18.115,8.7l2.042,4.085a2.509,2.509,0,0,0,1.64,1.207l3.7.619c2.367.4,2.924,2.1,1.222,3.806l-2.878,2.893a2.526,2.526,0,0,0-.6,2.1l.82,3.574c.65,2.816-.851,3.915-3.342,2.445l-3.466-2.058a2.493,2.493,0,0,0-2.29,0l-3.481,2.042c-2.491,1.47-3.992.371-3.342-2.445l.82-3.574a2.555,2.555,0,0,0-.6-2.1L5.489,18.429c-1.7-1.7-1.145-3.419,1.222-3.806l3.7-.619a2.56,2.56,0,0,0,1.64-1.207l2.042-4.085C15.19,6.484,17.016,6.484,18.115,8.7Z" transform="translate(0 3.168)" fill="#f7931e"/>
    <path id="Path_12050" data-name="Path 12050" d="M6.41,14.4a1.169,1.169,0,0,1-1.16-1.16V2.41a1.16,1.16,0,0,1,2.321,0V13.241A1.169,1.169,0,0,1,6.41,14.4Z" transform="translate(0.409)" fill="#f7931e"/>
    <path id="Path_12051" data-name="Path 12051" d="M18.41,14.4a1.169,1.169,0,0,1-1.16-1.16V2.41a1.16,1.16,0,0,1,2.321,0V13.241A1.169,1.169,0,0,1,18.41,14.4Z" transform="translate(6.976)" fill="#f7931e"/>
    <path id="Path_12052" data-name="Path 12052" d="M12.41,6.665A1.169,1.169,0,0,1,11.25,5.5V2.41a1.16,1.16,0,1,1,2.321,0V5.5A1.169,1.169,0,0,1,12.41,6.665Z" transform="translate(3.693)" fill="#f7931e"/>
  </g>
</svg>
