<svg xmlns="http://www.w3.org/2000/svg" width="21.25" height="20" viewBox="0 0 21.25 20">
  <path id="snapchat" d="M23.035,17.924c-3.045-.5-4.41-3.623-4.467-3.756l-.006-.012a1.143,1.143,0,0,1-.109-.956c.2-.483.881-.7,1.33-.841.112-.036.218-.069.3-.1.81-.321.975-.653.971-.875a.7.7,0,0,0-.533-.579l-.006,0a1,1,0,0,0-.379-.073.8.8,0,0,0-.332.066,2.694,2.694,0,0,1-1.015.283.871.871,0,0,1-.563-.189c.01-.181.021-.368.034-.565l0-.07a10.786,10.786,0,0,0-.256-4.3,5.576,5.576,0,0,0-5.178-3.344l-.428,0A5.566,5.566,0,0,0,7.237,5.958a10.773,10.773,0,0,0-.256,4.294q.021.318.038.637a.9.9,0,0,1-.62.19,2.6,2.6,0,0,1-1.077-.285.61.61,0,0,0-.261-.052.886.886,0,0,0-.861.567c-.087.459.566.791.963.948.084.033.189.067.3.1.448.143,1.125.358,1.33.841a1.144,1.144,0,0,1-.109.956l-.006.012a7.488,7.488,0,0,1-1.136,1.77,5.538,5.538,0,0,1-3.331,1.985A.255.255,0,0,0,2,18.19a.406.406,0,0,0,.033.138c.187.438,1.124.8,2.711,1.045.148.023.211.266.3.663.035.159.07.324.12.494a.311.311,0,0,0,.339.244,2.635,2.635,0,0,0,.451-.065,5.861,5.861,0,0,1,1.19-.135A5.25,5.25,0,0,1,8,20.647a4.116,4.116,0,0,1,1.631.835,4.714,4.714,0,0,0,2.858,1.129c.036,0,.072,0,.106,0s.1,0,.161,0a4.719,4.719,0,0,0,2.859-1.13,4.111,4.111,0,0,1,1.629-.834,5.27,5.27,0,0,1,.859-.073,5.928,5.928,0,0,1,1.19.126,2.535,2.535,0,0,0,.452.057h.025a.3.3,0,0,0,.314-.235c.049-.168.085-.328.121-.491.086-.4.149-.637.3-.66,1.587-.246,2.525-.607,2.71-1.042a.411.411,0,0,0,.034-.139.255.255,0,0,0-.213-.266Z" transform="translate(-1.998 -2.611)" fill="#0e0f3b"/>
</svg>
