<svg xmlns="http://www.w3.org/2000/svg" width="23" height="20" viewBox="0 0 23 20">
  <g id="Subscription" transform="translate(-1.25 -2.75)">
    <path id="Path_12022" data-name="Path 12022" d="M23.448,9.372H2.052a.811.811,0,0,1,0-1.622h21.4a.811.811,0,0,1,0,1.622Z" transform="translate(0 0.405)" fill="#0e0f3b"/>
    <path id="Path_12023" data-name="Path 12023" d="M8.192,17.372H6.052a.811.811,0,0,1,0-1.622h2.14a.811.811,0,0,1,0,1.622Z" transform="translate(0.279 1.054)" fill="#0e0f3b"/>
    <path id="Path_12024" data-name="Path 12024" d="M14.831,17.372H10.552a.811.811,0,0,1,0-1.622h4.279a.811.811,0,0,1,0,1.622Z" transform="translate(0.593 1.054)" fill="#0e0f3b"/>
    <path id="Path_12025" data-name="Path 12025" d="M18.7,22.75H6.8c-4.258,0-5.552-1.3-5.552-5.557V8.307C1.25,4.047,2.544,2.75,6.8,2.75H18.687c4.258,0,5.552,1.3,5.552,5.557v8.876C24.25,21.453,22.956,22.75,18.7,22.75ZM6.8,4.372c-3.359,0-3.947.584-3.947,3.935v8.876c0,3.351.588,3.935,3.947,3.935H18.687c3.359,0,3.947-.584,3.947-3.935V8.307c0-3.351-.588-3.935-3.947-3.935Z" fill="#0e0f3b"/>
  </g>
</svg>
