<svg xmlns="http://www.w3.org/2000/svg" width="28" height="32" viewBox="0 0 28 32">
  <g id="time" transform="translate(-3.33 -2)">
    <path id="Path_12036" data-name="Path 12036" d="M17.33,4.65a13.88,13.88,0,1,0,14,13.888A13.953,13.953,0,0,0,17.33,4.65Zm1.211,13.36a1.211,1.211,0,0,1-2.422,0v-8a1.211,1.211,0,0,1,2.422,0Z" transform="translate(0 1.59)" fill="#f7931e"/>
    <path id="Path_12037" data-name="Path 12037" d="M18.886,4.32H9.553A1.153,1.153,0,0,1,8.39,3.168,1.166,1.166,0,0,1,9.553,2h9.333a1.153,1.153,0,0,1,1.163,1.152A1.166,1.166,0,0,1,18.886,4.32Z" transform="translate(3.111)" fill="#f7931e"/>
  </g>
</svg>
