<svg xmlns="http://www.w3.org/2000/svg" width="20.099" height="13.314" viewBox="0 0 20.099 13.314">
  <g id="icon" transform="translate(0.532 0.707)">
    <g id="Group_524" data-name="Group 524" transform="translate(0 0.891)">
      <g id="Group_61" data-name="Group 61">
        <g id="Group_60" data-name="Group 60">
          <path id="Path_223" data-name="Path 223" d="M18.973,111.991c-.15-.218-3.754-5.329-9.451-5.329-4.889,0-9.245,5.081-9.428,5.3a.4.4,0,0,0,0,.513c.183.217,4.539,5.3,9.428,5.3s9.245-5.081,9.428-5.3A.4.4,0,0,0,18.973,111.991Zm-9.451,4.986c-3.919,0-7.645-3.737-8.592-4.761.945-1.024,4.667-4.761,8.592-4.761,4.585,0,7.822,3.732,8.612,4.739C17.222,113.186,13.474,116.977,9.522,116.977Z" transform="translate(0 -106.662)" fill="#7f7f7f" stroke="#7f7f7f" stroke-width="1"/>
        </g>
      </g>
      <g id="Group_63" data-name="Group 63" transform="translate(6.347 2.084)">
        <g id="Group_62" data-name="Group 62">
          <path id="Path_224" data-name="Path 224" d="M173.836,170.662a3.174,3.174,0,1,0,3.174,3.174A3.177,3.177,0,0,0,173.836,170.662Zm0,5.554a2.38,2.38,0,1,1,2.38-2.38A2.383,2.383,0,0,1,173.836,176.216Z" transform="translate(-170.662 -170.662)" fill="#7f7f7f" stroke="#7f7f7f" stroke-width="1"/>
        </g>
      </g>
    </g>
    <line id="Line_1" data-name="Line 1" x2="11.9" y2="11.9" transform="translate(3.872)" fill="none" stroke="#7f7f7f" stroke-width="2"/>
  </g>
</svg>
