<svg xmlns="http://www.w3.org/2000/svg" width="21.5" height="21.5" viewBox="0 0 21.5 21.5">
  <g id="user" transform="translate(-1.25 -1.25)">
    <path id="Path_12009" data-name="Path 12009" d="M18.14,21.62A11.152,11.152,0,0,1,15,22H9a11.152,11.152,0,0,1-3.14-.38c.22-2.6,2.89-4.65,6.14-4.65S17.92,19.02,18.14,21.62Z" fill="none" stroke="#0e0f3b" stroke-linecap="round" stroke-linejoin="round" stroke-width="1.5"/>
    <path id="Path_12010" data-name="Path 12010" d="M15,2H9C4,2,2,4,2,9v6c0,3.78,1.14,5.85,3.86,6.62.22-2.6,2.89-4.65,6.14-4.65s5.92,2.05,6.14,4.65C20.86,20.85,22,18.78,22,15V9C22,4,20,2,15,2ZM12,14.17a3.585,3.585,0,1,1,3.58-3.59A3.585,3.585,0,0,1,12,14.17Z" fill="none" stroke="#0e0f3b" stroke-linecap="round" stroke-linejoin="round" stroke-width="1.5"/>
    <path id="Path_12011" data-name="Path 12011" d="M15.58,10.58A3.58,3.58,0,1,1,12,7,3.585,3.585,0,0,1,15.58,10.58Z" fill="none" stroke="#0e0f3b" stroke-linecap="round" stroke-linejoin="round" stroke-width="1.5"/>
  </g>
</svg>
