<svg xmlns="http://www.w3.org/2000/svg" width="20.488" height="20.603" viewBox="0 0 20.488 20.603">
  <path id="whatsapp" d="M16.582,13.985c-.2-.1-1.5-.7-1.7-.8a.47.47,0,0,0-.6.1c-.2.2-.6.8-.8,1-.1.2-.3.2-.5.1a8.165,8.165,0,0,1-2-1.2,11.5,11.5,0,0,1-1.4-1.7.439.439,0,0,1,.1-.5c.1-.1.2-.3.4-.4a.757.757,0,0,0,.2-.4.3.3,0,0,0,0-.4,17.753,17.753,0,0,1-.8-1.8c-.1-.7-.3-.7-.5-.7h-.5a1.139,1.139,0,0,0-.6.3,2.875,2.875,0,0,0-.9,2.1,5.232,5.232,0,0,0,1,2.6,10.648,10.648,0,0,0,4.195,3.7,7.828,7.828,0,0,0,1.4.5,2.853,2.853,0,0,0,1.6.1,2.587,2.587,0,0,0,1.7-1.2,1.67,1.67,0,0,0,.1-1.2l-.4-.2m2.5-9.089A9.955,9.955,0,0,0,3.4,16.881L2,21.975l5.293-1.4a9.868,9.868,0,0,0,14.582-8.689,9.728,9.728,0,0,0-2.8-6.991m-2.7,13.982a8.382,8.382,0,0,1-4.394,1.3,8.758,8.758,0,0,1-4.195-1.1l-.3-.2-3.1.8.8-3-.2-.3A8.386,8.386,0,0,1,7.693,4.9a8.125,8.125,0,0,1,11.286,2.6,8.241,8.241,0,0,1-2.6,11.386" transform="translate(-1.644 -1.725)" fill="#0e0f3b" stroke="#0e0f3b" stroke-width="0.5"/>
</svg>
