<svg xmlns="http://www.w3.org/2000/svg" width="32" height="32" viewBox="0 0 32 32">
  <g id="xp" transform="translate(0 -0.971)">
    <path id="Path_12038" data-name="Path 12038" d="M22.7.971H9.3C3.472.971,0,4.443,0,10.267V23.675c0,5.824,3.472,9.3,9.3,9.3H22.7c5.824,0,9.3-3.472,9.3-9.3V10.267C32,4.443,28.528.971,22.7.971Z" transform="translate(0 0)" fill="#f7931e"/>
    <path id="Path_12039" data-name="Path 12039" d="M20.36,8.29a1.2,1.2,0,0,1-1.2,1.2h-8.4a1.2,1.2,0,1,1,0-2.4h8.4A1.2,1.2,0,0,1,20.36,8.29Z" transform="translate(5.736 3.671)" fill="#fee9d2"/>
    <path id="Path_12040" data-name="Path 12040" d="M10.541,7.638l-3.6,3.6a1.187,1.187,0,0,1-.848.352,1.161,1.161,0,0,1-.848-.352l-1.2-1.2a1.179,1.179,0,0,1,0-1.7,1.207,1.207,0,0,1,1.7,0l.352.352L8.845,5.942a1.2,1.2,0,0,1,1.7,1.7Z" transform="translate(2.211 2.774)" fill="#fee9d2"/>
    <path id="Path_12041" data-name="Path 12041" d="M20.36,15.29a1.2,1.2,0,0,1-1.2,1.2h-8.4a1.2,1.2,0,1,1,0-2.4h8.4A1.2,1.2,0,0,1,20.36,15.29Z" transform="translate(5.736 7.871)" fill="#fee9d2"/>
    <path id="Path_12042" data-name="Path 12042" d="M10.541,14.638l-3.6,3.6a1.187,1.187,0,0,1-.848.352,1.161,1.161,0,0,1-.848-.352l-1.2-1.2a1.179,1.179,0,0,1,0-1.7,1.207,1.207,0,0,1,1.7,0l.352.352,2.752-2.752a1.2,1.2,0,0,1,1.7,1.7Z" transform="translate(2.211 6.974)" fill="#fee9d2"/>
  </g>
</svg>
